PathFileType	4	(X/Y/Z)	 New Session 101.trc
DataRate	CameraRate	NumFrames	NumMarkers	Units	OrigDataRate	OrigDataStartFrame	OrigNumFrames
100	100	27	14	m	100	253	337
Frame#	Time	C7			T8			IJ			PX			AA			AC			AI			TS			SC			GH			LE			ME			US			RS			
		X1	Y1	Z1	X2	Y2	Z2	X3	Y3	Z3	X4	Y4	Z4	X5	Y5	Z5	X6	Y6	Z6	X7	Y7	Z7	X8	Y8	Z8	X9	Y9	Z9	X10	Y10	Z10	X11	Y11	Z11	X12	Y12	Z12	X13	Y13	Z13	X14	Y14	Z14	
253	2.5300	0.022577	0.106273	0.165751	0.030381	-0.108756	0.238904	0.000870	0.001972	0.004438	0.003130	-0.140679	-0.061830	0.220971	0.010874	0.146686	0.169810	0.054409	0.077233	0.107754	0.029826	0.205902	0.112539	-0.088526	0.236637	0.025854	0.010401	0.008478	0.232126	0.025669	0.107348	0.321813	-0.247001	0.034410	0.239410	-0.283775	-0.000760	0.409275	-0.495236	-0.058888	0.446433	-0.447862	-0.111226	
254	2.5400	0.022573	0.106277	0.165926	0.030376	-0.108742	0.238599	0.000847	0.001973	0.004592	0.003129	-0.140666	-0.061686	0.220982	0.010865	0.146853	0.169825	0.054419	0.077404	0.107775	0.029817	0.206074	0.112527	-0.088525	0.236810	0.025877	0.010429	0.008629	0.232120	0.025648	0.107480	0.321821	-0.247005	0.034540	0.239386	-0.283764	-0.000489	0.409292	-0.495230	-0.058711	0.446449	-0.447873	-0.111044	
255	2.5500	0.022567	0.106291	0.166101	0.030362	-0.108727	0.238296	0.000810	0.001973	0.004749	0.003129	-0.140651	-0.061546	0.220989	0.010858	0.147022	0.169843	0.054429	0.077565	0.107792	0.029811	0.206235	0.112515	-0.088522	0.236970	0.025894	0.010453	0.008778	0.232122	0.025636	0.107613	0.321836	-0.246987	0.034673	0.239364	-0.283753	-0.000227	0.409308	-0.495227	-0.058535	0.446473	-0.447879	-0.110860	
256	2.5600	0.022563	0.106312	0.166270	0.030355	-0.108728	0.238416	0.000762	0.001972	0.004911	0.003129	-0.140634	-0.061411	0.220990	0.010858	0.147189	0.169861	0.054440	0.077717	0.107797	0.029812	0.206387	0.112505	-0.088516	0.237118	0.025907	0.010473	0.008925	0.232130	0.025632	0.107750	0.321849	-0.246952	0.034810	0.239345	-0.283741	0.000020	0.409321	-0.495224	-0.058359	0.446497	-0.447877	-0.110674	
257	2.5700	0.022564	0.106336	0.166427	0.030364	-0.108742	0.238975	0.000711	0.001971	0.005073	0.003128	-0.140616	-0.061279	0.220988	0.010866	0.147351	0.169877	0.054452	0.077863	0.107790	0.029821	0.206534	0.112498	-0.088508	0.237254	0.025916	0.010488	0.009070	0.232145	0.025639	0.107894	0.321853	-0.246910	0.034951	0.239329	-0.283728	0.000249	0.409331	-0.495222	-0.058186	0.446519	-0.447865	-0.110487	
258	2.5800	0.022571	0.106356	0.166567	0.030381	-0.108748	0.239564	0.000663	0.001970	0.005233	0.003125	-0.140600	-0.061146	0.220989	0.010881	0.147503	0.169892	0.054464	0.078003	0.107778	0.029835	0.206678	0.112495	-0.088499	0.237382	0.025923	0.010499	0.009212	0.232166	0.025655	0.108046	0.321845	-0.246877	0.035096	0.239317	-0.283714	0.000459	0.409339	-0.495221	-0.058017	0.446539	-0.447850	-0.110309	
259	2.5900	0.022586	0.106368	0.166689	0.030396	-0.108736	0.239916	0.000623	0.001968	0.005388	0.003121	-0.140590	-0.061011	0.220993	0.010896	0.147643	0.169903	0.054476	0.078140	0.107768	0.029850	0.206816	0.112497	-0.088490	0.237504	0.025929	0.010508	0.009353	0.232195	0.025681	0.108209	0.321833	-0.246858	0.035245	0.239309	-0.283698	0.000647	0.409345	-0.495220	-0.057854	0.446559	-0.447841	-0.110144	
260	2.6000	0.022606	0.106367	0.166796	0.030405	-0.108718	0.240063	0.000593	0.001967	0.005536	0.003117	-0.140586	-0.060872	0.221003	0.010910	0.147771	0.169912	0.054486	0.078272	0.107768	0.029857	0.206945	0.112504	-0.088482	0.237622	0.025935	0.010514	0.009490	0.232233	0.025715	0.108383	0.321825	-0.246855	0.035397	0.239305	-0.283682	0.000814	0.409350	-0.495220	-0.057697	0.446576	-0.447844	-0.109989	
261	2.6100	0.022627	0.106357	0.166896	0.030407	-0.108705	0.240147	0.000575	0.001965	0.005676	0.003112	-0.140589	-0.060727	0.221016	0.010921	0.147891	0.169918	0.054494	0.078402	0.107774	0.029855	0.207068	0.112517	-0.088475	0.237741	0.025942	0.010519	0.009625	0.232275	0.025757	0.108565	0.321825	-0.246860	0.035548	0.239306	-0.283666	0.000958	0.409355	-0.495220	-0.057547	0.446584	-0.447856	-0.109841	
262	2.6200	0.022641	0.106341	0.166998	0.030403	-0.108701	0.240250	0.000567	0.001963	0.005808	0.003107	-0.140595	-0.060576	0.221029	0.010933	0.148007	0.169923	0.054501	0.078529	0.107779	0.029855	0.207190	0.112534	-0.088469	0.237861	0.025949	0.010524	0.009756	0.232317	0.025801	0.108749	0.321829	-0.246863	0.035694	0.239311	-0.283651	0.001081	0.409359	-0.495219	-0.057402	0.446579	-0.447867	-0.109695	
263	2.6300	0.022642	0.106324	0.167106	0.030398	-0.108698	0.240385	0.000567	0.001961	0.005936	0.003102	-0.140604	-0.060420	0.221039	0.010948	0.148121	0.169928	0.054507	0.078654	0.107774	0.029872	0.207318	0.112553	-0.088463	0.237984	0.025957	0.010530	0.009885	0.232350	0.025844	0.108928	0.321834	-0.246859	0.035837	0.239319	-0.283636	0.001183	0.409361	-0.495217	-0.057262	0.446564	-0.447867	-0.109554	
264	2.6400	0.022631	0.106312	0.167225	0.030398	-0.108692	0.240544	0.000575	0.001961	0.006058	0.003099	-0.140612	-0.060262	0.221047	0.010968	0.148237	0.169932	0.054515	0.078778	0.107757	0.029909	0.207456	0.112572	-0.088458	0.238112	0.025965	0.010536	0.010011	0.232372	0.025882	0.109096	0.321834	-0.246847	0.035980	0.239331	-0.283624	0.001266	0.409362	-0.495215	-0.057127	0.446542	-0.447855	-0.109425	
265	2.6500	0.022609	0.106306	0.167353	0.030405	-0.108674	0.240718	0.000589	0.001962	0.006177	0.003099	-0.140621	-0.060106	0.221055	0.010992	0.148353	0.169937	0.054525	0.078900	0.107733	0.029956	0.207599	0.112589	-0.088452	0.238242	0.025973	0.010543	0.010136	0.232382	0.025912	0.109253	0.321827	-0.246836	0.036122	0.239347	-0.283613	0.001331	0.409361	-0.495212	-0.056997	0.446518	-0.447836	-0.109309	
266	2.6600	0.022582	0.106306	0.167489	0.030416	-0.108649	0.240899	0.000608	0.001965	0.006294	0.003102	-0.140627	-0.059954	0.221066	0.011013	0.148468	0.169943	0.054536	0.079021	0.107718	0.029996	0.207737	0.112601	-0.088447	0.238375	0.025981	0.010550	0.010259	0.232384	0.025934	0.109399	0.321813	-0.246834	0.036265	0.239367	-0.283604	0.001381	0.409358	-0.495209	-0.056870	0.446496	-0.447821	-0.109202	
267	2.6700	0.022554	0.106311	0.167631	0.030423	-0.108626	0.241062	0.000633	0.001970	0.006408	0.003108	-0.140633	-0.059808	0.221080	0.011025	0.148583	0.169949	0.054546	0.079142	0.107718	0.030013	0.207867	0.112608	-0.088443	0.238511	0.025989	0.010555	0.010382	0.232379	0.025947	0.109537	0.321795	-0.246843	0.036404	0.239390	-0.283597	0.001419	0.409354	-0.495208	-0.056748	0.446483	-0.447816	-0.109098	
268	2.6800	0.022529	0.106318	0.167775	0.030420	-0.108615	0.241190	0.000660	0.001977	0.006522	0.003118	-0.140636	-0.059672	0.221096	0.011027	0.148700	0.169954	0.054556	0.079261	0.107730	0.030006	0.207991	0.112609	-0.088439	0.238648	0.025998	0.010559	0.010506	0.232373	0.025955	0.109669	0.321777	-0.246857	0.036537	0.239414	-0.283593	0.001448	0.409348	-0.495208	-0.056629	0.446477	-0.447819	-0.108995	
269	2.6900	0.022508	0.106326	0.167918	0.030414	-0.108615	0.241309	0.000689	0.001984	0.006636	0.003128	-0.140639	-0.059544	0.221110	0.011023	0.148820	0.169959	0.054564	0.079380	0.107741	0.029984	0.208111	0.112604	-0.088437	0.238785	0.026006	0.010560	0.010630	0.232367	0.025958	0.109797	0.321761	-0.246870	0.036660	0.239440	-0.283591	0.001472	0.409341	-0.495208	-0.056514	0.446471	-0.447823	-0.108893	
270	2.7000	0.022490	0.106335	0.168060	0.030409	-0.108624	0.241447	0.000715	0.001992	0.006751	0.003135	-0.140638	-0.059426	0.221117	0.011018	0.148942	0.169962	0.054570	0.079497	0.107746	0.029967	0.208230	0.112593	-0.088436	0.238923	0.026012	0.010559	0.010754	0.232363	0.025962	0.109921	0.321748	-0.246874	0.036775	0.239465	-0.283590	0.001495	0.409334	-0.495210	-0.056404	0.446461	-0.447822	-0.108791	
271	2.7100	0.022477	0.106345	0.168199	0.030406	-0.108640	0.241589	0.000738	0.002000	0.006866	0.003137	-0.140636	-0.059315	0.221114	0.011016	0.149064	0.169965	0.054575	0.079611	0.107742	0.029961	0.208350	0.112577	-0.088435	0.239060	0.026017	0.010557	0.010877	0.232363	0.025966	0.110043	0.321738	-0.246868	0.036885	0.239487	-0.283591	0.001519	0.409324	-0.495213	-0.056299	0.446452	-0.447811	-0.108686	
272	2.7200	0.022469	0.106359	0.168334	0.030399	-0.108651	0.241676	0.000756	0.002009	0.006983	0.003133	-0.140633	-0.059210	0.221105	0.011018	0.149182	0.169967	0.054578	0.079723	0.107732	0.029965	0.208474	0.112560	-0.088435	0.239196	0.026019	0.010554	0.011000	0.232366	0.025971	0.110161	0.321729	-0.246857	0.036989	0.239506	-0.283593	0.001548	0.409313	-0.495217	-0.056198	0.446447	-0.447793	-0.108582	
273	2.7300	0.022464	0.106375	0.168465	0.030388	-0.108650	0.241632	0.000769	0.002017	0.007102	0.003122	-0.140630	-0.059105	0.221095	0.011018	0.149299	0.169970	0.054579	0.079832	0.107724	0.029970	0.208603	0.112542	-0.088435	0.239329	0.026020	0.010549	0.011120	0.232371	0.025974	0.110275	0.321720	-0.246849	0.037082	0.239518	-0.283594	0.001580	0.409300	-0.495221	-0.056103	0.446443	-0.447775	-0.108484	
274	2.7400	0.022463	0.106396	0.168593	0.030374	-0.108639	0.241471	0.000777	0.002025	0.007221	0.003109	-0.140628	-0.059000	0.221086	0.011012	0.149418	0.169973	0.054577	0.079938	0.107728	0.029966	0.208728	0.112525	-0.088435	0.239457	0.026019	0.010544	0.011237	0.232377	0.025974	0.110384	0.321707	-0.246852	0.037158	0.239524	-0.283596	0.001617	0.409285	-0.495226	-0.056012	0.446433	-0.447766	-0.108396	
275	2.7500	0.022464	0.106418	0.168716	0.030361	-0.108634	0.241410	0.000781	0.002032	0.007339	0.003096	-0.140626	-0.058894	0.221081	0.010998	0.149538	0.169978	0.054574	0.080043	0.107746	0.029948	0.208840	0.112512	-0.088434	0.239579	0.026016	0.010538	0.011350	0.232382	0.025968	0.110487	0.321689	-0.246868	0.037220	0.239522	-0.283596	0.001657	0.409268	-0.495232	-0.055925	0.446421	-0.447772	-0.108315	
276	2.7600	0.022468	0.106440	0.168833	0.030355	-0.108646	0.241648	0.000784	0.002037	0.007456	0.003083	-0.140621	-0.058788	0.221078	0.010980	0.149657	0.169983	0.054571	0.080146	0.107771	0.029925	0.208943	0.112504	-0.088433	0.239693	0.026013	0.010534	0.011458	0.232381	0.025955	0.110581	0.321668	-0.246899	0.037277	0.239512	-0.283597	0.001697	0.409248	-0.495238	-0.055842	0.446410	-0.447786	-0.108237	
277	2.7700	0.022473	0.106459	0.168943	0.030358	-0.108661	0.242005	0.000786	0.002041	0.007568	0.003073	-0.140612	-0.058685	0.221075	0.010964	0.149772	0.169987	0.054568	0.080248	0.107795	0.029910	0.209041	0.112499	-0.088432	0.239797	0.026010	0.010531	0.011560	0.232372	0.025934	0.110666	0.321646	-0.246937	0.037338	0.239493	-0.283597	0.001738	0.409225	-0.495246	-0.055761	0.446396	-0.447798	-0.108163	
278	2.7800	0.022480	0.106475	0.169047	0.030362	-0.108663	0.242265	0.000789	0.002044	0.007674	0.003063	-0.140599	-0.058588	0.221071	0.010954	0.149879	0.169989	0.054566	0.080347	0.107814	0.029912	0.209134	0.112499	-0.088430	0.239891	0.026007	0.010531	0.011655	0.232351	0.025905	0.110740	0.321626	-0.246974	0.037409	0.239468	-0.283597	0.001777	0.409198	-0.495254	-0.055683	0.446362	-0.447806	-0.108098	
279	2.7900	0.022487	0.106487	0.169146	0.030361	-0.108647	0.242398	0.000793	0.002047	0.007774	0.003053	-0.140583	-0.058496	0.221065	0.010950	0.149979	0.169987	0.054565	0.080442	0.107825	0.029924	0.209219	0.112502	-0.088430	0.239976	0.026003	0.010534	0.011745	0.232317	0.025870	0.110802	0.321611	-0.247001	0.037490	0.239436	-0.283597	0.001814	0.409165	-0.495265	-0.055606	0.446299	-0.447813	-0.108044	
